<?xml version="1.0" standalone="no"?>
<svg xmlns="http://www.w3.org/2000/svg" viewBox="0 0 79 68" width="79" height="68"><g fill="#ead017" color="#ead017" transform="translate(17.073 0) scale(0.7857143) "><svg width="56.0" height="54.0" x="0.0" y="0.0" viewBox="0 0 56 54"><path fill="currentColor" fill-rule="evenodd" d="M20.14 11.806c.69 0 1.248.302 1.248.676 0 .373-.559.676-1.248.676-.69 0-1.248-.303-1.248-.676 0-.374.559-.676 1.248-.676m20.405 21.523l.534.01c5.6.225 9.9 4.467 9.9 10.137 0 0 .297 5.7-3.224 9.674-.285.323-.808.047-.72-.374.324-1.532.214-3.749-2.713-4.567-2.838-.792-5.67-.042-8.392.814-5.072 1.593-10.064 4.536-15.43 4.937-2.73.204-5.532-.369-7.9-1.742-4.398-2.548-6.242-7.656-6.572-12.497-.023-.334-.097-1.047.156-1.103.367-.077.692.66.855.874.337.445.72.855 1.141 1.221 2.783 2.425 6.471 2.177 9.853 1.42 3.721-.832 6.965-2.528 10.252-4.388 3.181-1.8 6.462-3.691 10.13-4.252.88-.135 1.774-.19 2.664-.154zm1.404 5.878c-1.67-.286-3.379-.148-5.01.232-1.627.412-3.168 1.058-4.6 1.858a29.406 29.406 0 0 0-4.054 2.738c1.534-.572 3.004-1.25 4.477-1.864 1.477-.602 2.954-1.16 4.47-1.518a16.128 16.128 0 0 1 4.608-.477 13.26 13.26 0 0 1 4.59 1.103c-1.223-1.096-2.818-1.798-4.481-2.072zM21.752 0c1.066 0 3.484 3.12 3.484 3.12S32.44 7.49 35.533 15.653c3.094 8.165-3.068 15.965-3.068 15.965a21.32 21.32 0 0 0 .759-4.477c.047-.834.038-1.671-.026-2.503-.022-.278-.138-.71-.229-1.134-.056-.262-.4-.307-.537-.077a4.679 4.679 0 0 1-1.004 1.177c-.049-1.565-.206-3.147-.744-4.618-.462-1.262-1.228-2.444-2.29-3.253a.252.252 0 0 0-.401.243 4.672 4.672 0 0 1-.116 2.121c-1.659-1.66-3.973-2.53-6.294-2.886-1.924-.295-3.877-.266-5.827-.224-.377.008-.494.51-.164.692 1.58.875 3.253 1.227 5.08 1.589 2.24.444 4.149 1.495 5.5 3.366 2.03 2.809 1.345 9.595.963 12.34a2.533 2.533 0 0 1-1.21 1.827c-2.498 1.493-5.553 2.77-9.429 3.567-1.91.392-3.986.347-5.839-.3-.903-.315-1.758-.85-2.29-1.646-.653-.976-.749-2.253-.45-3.389.3-1.136.96-2.146 1.717-3.044 2.322-2.753 5.518-4.529 8.224-6.853 1.123-.964 2.342-2.005 2.822-3.471.023-.068.295-1.26.084-1.267-3.207-.114-8.018-1.093-9.7-4.246-.1-.185-.188-.397-.136-.6.065-.257.325-.407.56-.528 2.168-1.113 4.257-2.135 6.102-3.767a19.55 19.55 0 0 0 2.2-2.29c.297-.364 1.429-1.346 1.39-1.83 0-.001-.494-6.137.572-6.137z"></path></svg></g><path fill="#000000" fill-rule="nonzero" d="M7.85 16.97L0.10 16.97Q0 16.97 0 16.85L0 16.85L0.02 0.38Q0.02 0.26 0.14 0.26L0.14 0.26L2.81 0.26Q2.93 0.26 2.93 0.38L2.93 0.38L2.90 14.02L7.85 14.02Q7.97 14.02 7.97 14.14L7.97 14.14L7.97 16.85Q7.97 16.97 7.85 16.97L7.85 16.97ZM17.38 16.97L9.62 16.97Q9.53 16.97 9.53 16.85L9.53 16.85L9.55 0.36Q9.55 0.26 9.65 0.26L9.65 0.26L17.35 0.26Q17.45 0.26 17.45 0.38L17.45 0.38L17.45 3.07Q17.45 3.17 17.35 3.17L17.35 3.17L12.43 3.17L12.43 6.91L17.35 6.91Q17.45 6.91 17.45 7.01L17.45 7.01L17.47 9.72Q17.47 9.82 17.38 9.82L17.38 9.82L12.43 9.82L12.43 14.02L17.38 14.02Q17.47 14.02 17.47 14.14L17.47 14.14L17.47 16.87Q17.47 16.97 17.38 16.97L17.38 16.97ZM23.54 17.21L23.54 17.21Q22.25 17.21 21.18 16.55Q20.11 15.89 19.48 14.80Q18.84 13.70 18.84 12.38L18.84 12.38L18.84 11.28Q18.84 11.16 18.96 11.16L18.96 11.16L21.65 11.16Q21.74 11.16 21.74 11.28L21.74 11.28L21.74 12.38Q21.74 13.18 22.27 13.74Q22.80 14.30 23.54 14.30L23.54 14.30Q24.29 14.30 24.82 13.73Q25.34 13.15 25.34 12.38L25.34 12.38Q25.34 11.50 24.19 10.85L24.19 10.85Q23.81 10.63 22.99 10.18Q22.18 9.72 21.46 9.31L21.46 9.31Q20.14 8.54 19.50 7.38Q18.86 6.22 18.86 4.75L18.86 4.75Q18.86 3.41 19.51 2.34Q20.16 1.27 21.23 0.65Q22.30 0.02 23.54 0.02L23.54 0.02Q24.82 0.02 25.88 0.66Q26.95 1.30 27.59 2.36Q28.22 3.43 28.22 4.75L28.22 4.75L28.22 6.72Q28.22 6.82 28.13 6.82L28.13 6.82L25.44 6.82Q25.34 6.82 25.34 6.72L25.34 6.72L25.32 4.75Q25.32 3.91 24.79 3.38Q24.26 2.86 23.54 2.86L23.54 2.86Q22.80 2.86 22.27 3.42Q21.74 3.98 21.74 4.75L21.74 4.75Q21.74 5.54 22.08 6.07Q22.42 6.60 23.30 7.08L23.30 7.08Q23.42 7.15 23.77 7.33Q24.12 7.51 24.53 7.74Q24.94 7.97 25.26 8.14Q25.58 8.30 25.66 8.35L25.66 8.35Q26.86 9.02 27.55 10.00Q28.25 10.97 28.25 12.38L28.25 12.38Q28.25 13.75 27.61 14.84Q26.98 15.94 25.91 16.57Q24.84 17.21 23.54 17.21ZM28.63 16.85L28.63 16.85L31.61 0.36Q31.63 0.26 31.73 0.26L31.73 0.26L35.21 0.26Q35.30 0.26 35.33 0.36L35.33 0.36L38.18 16.85Q38.21 16.97 38.09 16.97L38.09 16.97L35.42 16.97Q35.33 16.97 35.30 16.85L35.30 16.85L35.04 15.10L31.78 15.10L31.51 16.85Q31.49 16.97 31.39 16.97L31.39 16.97L28.73 16.97Q28.63 16.97 28.63 16.85ZM33.34 5.78L32.26 12.53L34.56 12.53L33.58 5.78L33.43 4.90L33.34 5.78ZM43.66 16.97L40.94 16.97Q40.85 16.97 40.85 16.85L40.85 16.85L40.85 3.17L37.73 3.17Q37.61 3.17 37.61 3.05L37.61 3.05L37.63 0.36Q37.63 0.26 37.73 0.26L37.73 0.26L46.85 0.26Q46.97 0.26 46.97 0.36L46.97 0.36L46.97 3.05Q46.97 3.17 46.87 3.17L46.87 3.17L43.73 3.17L43.75 16.85Q43.75 16.97 43.66 16.97L43.66 16.97ZM55.99 16.97L48.24 16.97Q48.14 16.97 48.14 16.85L48.14 16.85L48.17 0.36Q48.17 0.26 48.26 0.26L48.26 0.26L55.97 0.26Q56.06 0.26 56.06 0.38L56.06 0.38L56.06 3.07Q56.06 3.17 55.97 3.17L55.97 3.17L51.05 3.17L51.05 6.91L55.97 6.91Q56.06 6.91 56.06 7.01L56.06 7.01L56.09 9.72Q56.09 9.82 55.99 9.82L55.99 9.82L51.05 9.82L51.05 14.02L55.99 14.02Q56.09 14.02 56.09 14.14L56.09 14.14L56.09 16.87Q56.09 16.97 55.99 16.97L55.99 16.97ZM62.26 17.21L62.26 17.21Q60.94 17.21 59.87 16.55Q58.80 15.89 58.18 14.78Q57.55 13.68 57.55 12.31L57.55 12.31L57.58 4.82Q57.58 3.50 58.19 2.41Q58.80 1.32 59.87 0.66Q60.94 0 62.26 0L62.26 0Q63.58 0 64.63 0.65Q65.69 1.30 66.31 2.39Q66.94 3.48 66.94 4.82L66.94 4.82L66.94 5.93Q66.94 6.02 66.84 6.02L66.84 6.02L64.15 6.02Q64.06 6.02 64.06 5.93L64.06 5.93L64.06 4.82Q64.06 4.03 63.54 3.46Q63.02 2.88 62.26 2.88L62.26 2.88Q61.39 2.88 60.94 3.47Q60.48 4.06 60.48 4.82L60.48 4.82L60.48 12.31Q60.48 13.20 61.00 13.75Q61.51 14.30 62.26 14.30L62.26 14.30Q63.02 14.30 63.54 13.69Q64.06 13.08 64.06 12.31L64.06 12.31L64.06 11.21Q64.06 11.11 64.15 11.11L64.15 11.11L66.86 11.11Q66.96 11.11 66.96 11.21L66.96 11.21L66.96 12.31Q66.96 13.68 66.32 14.78Q65.69 15.89 64.63 16.55Q63.58 17.21 62.26 17.21ZM71.52 16.97L68.81 16.97Q68.71 16.97 68.71 16.85L68.71 16.85L68.74 0.36Q68.74 0.26 68.86 0.26L68.86 0.26L71.52 0.26Q71.64 0.26 71.64 0.36L71.64 0.36L71.62 6.89L75.22 6.89L75.22 0.36Q75.22 0.26 75.31 0.26L75.31 0.26L77.98 0.26Q78.10 0.26 78.10 0.36L78.10 0.36L78.14 16.85Q78.14 16.97 78.02 16.97L78.02 16.97L75.34 16.97Q75.22 16.97 75.22 16.85L75.22 16.85L75.22 9.79L71.62 9.79L71.62 16.85Q71.62 16.97 71.52 16.97L71.52 16.97Z" transform="translate(0, 50.429)"></path></svg>